<svg width="123" height="13" viewBox="0 0 123 13" fill="none" xmlns="http://www.w3.org/2000/svg">
<path d="M9.6795 4.688H7.6155L6.8635 7.824H9.0075V8.688H6.6555L5.8555 12H4.9275L5.7435 8.688H2.7195L1.9195 12H0.991501L1.8075 8.688H-0.000498772V7.824H2.0155L2.7675 4.688H0.687501V3.872H2.9755L3.7595 0.639999H4.6875L3.8875 3.872H6.9115L7.6955 0.639999H8.6235L7.8235 3.872H9.6795V4.688ZM5.9515 7.824L6.7035 4.688H3.6795L2.9275 7.824H5.9515ZM12.6665 12V0.639999H20.1225V1.632H13.7865V5.808H19.1305V6.736H13.7865V12H12.6665ZM25.3184 0.639999H26.2624L30.9824 12H29.7984L28.3264 8.448H23.2224L21.7664 12H20.5664L25.3184 0.639999ZM28.0704 7.568L25.7824 1.952L23.4624 7.568H28.0704ZM40.039 2.768C39.719 2.40533 39.2923 2.112 38.759 1.888C38.2257 1.664 37.6177 1.552 36.935 1.552C35.9323 1.552 35.2017 1.744 34.743 2.128C34.2843 2.50133 34.055 3.01333 34.055 3.664C34.055 4.00533 34.1137 4.288 34.231 4.512C34.359 4.72533 34.551 4.912 34.807 5.072C35.063 5.232 35.3883 5.37067 35.783 5.488C36.1883 5.60533 36.663 5.72267 37.207 5.84C37.815 5.968 38.359 6.112 38.839 6.272C39.3297 6.432 39.7457 6.63467 40.087 6.88C40.4283 7.11467 40.6897 7.40267 40.871 7.744C41.0523 8.08533 41.143 8.512 41.143 9.024C41.143 9.54667 41.0417 10 40.839 10.384C40.6363 10.768 40.3537 11.088 39.991 11.344C39.6283 11.6 39.1963 11.792 38.695 11.92C38.1937 12.0373 37.6443 12.096 37.047 12.096C35.287 12.096 33.767 11.5467 32.487 10.448L33.047 9.536C33.2497 9.74933 33.4897 9.952 33.767 10.144C34.055 10.336 34.3697 10.5067 34.711 10.656C35.063 10.7947 35.4363 10.9067 35.831 10.992C36.2257 11.0667 36.6417 11.104 37.079 11.104C37.9857 11.104 38.6897 10.944 39.191 10.624C39.703 10.2933 39.959 9.79733 39.959 9.136C39.959 8.784 39.8843 8.49067 39.735 8.256C39.5963 8.01067 39.383 7.80267 39.095 7.632C38.807 7.45067 38.4497 7.296 38.023 7.168C37.5963 7.04 37.1003 6.912 36.535 6.784C35.9377 6.64533 35.415 6.50133 34.967 6.352C34.519 6.20267 34.1403 6.016 33.831 5.792C33.5217 5.568 33.287 5.30133 33.127 4.992C32.9777 4.672 32.903 4.28267 32.903 3.824C32.903 3.30133 32.999 2.83733 33.191 2.432C33.3937 2.016 33.6763 1.67467 34.039 1.408C34.4017 1.13067 34.8283 0.922666 35.319 0.783999C35.8097 0.634666 36.3537 0.559999 36.951 0.559999C37.7083 0.559999 38.3803 0.677333 38.967 0.912C39.5643 1.136 40.103 1.456 40.583 1.872L40.039 2.768ZM53.0378 0.639999V12H51.9338V6.688H45.1978V12H44.0778V0.639999H45.1978V5.696H51.9338V0.639999H53.0378ZM56.8503 12V0.639999H57.9703V12H56.8503ZM66.355 12.08C65.5657 12.08 64.8403 11.92 64.179 11.6C63.5283 11.2693 62.9683 10.8373 62.499 10.304C62.0297 9.76 61.667 9.14133 61.411 8.448C61.155 7.75467 61.027 7.04533 61.027 6.32C61.027 5.56267 61.1603 4.83733 61.427 4.144C61.7043 3.45067 62.083 2.83733 62.563 2.304C63.043 1.77067 63.6083 1.34933 64.259 1.04C64.9097 0.719999 65.6137 0.559999 66.371 0.559999C67.1603 0.559999 67.8803 0.730666 68.531 1.072C69.1923 1.40267 69.7523 1.84 70.211 2.384C70.6803 2.928 71.043 3.54667 71.299 4.24C71.555 4.92267 71.683 5.62133 71.683 6.336C71.683 7.09333 71.5443 7.81867 71.267 8.512C71.0003 9.20533 70.627 9.81867 70.147 10.352C69.6777 10.8747 69.1177 11.296 68.467 11.616C67.8163 11.9253 67.1123 12.08 66.355 12.08ZM62.147 6.32C62.147 6.93867 62.2483 7.536 62.451 8.112C62.6537 8.67733 62.9417 9.184 63.315 9.632C63.6883 10.0693 64.131 10.4213 64.643 10.688C65.155 10.944 65.7257 11.072 66.355 11.072C66.995 11.072 67.5763 10.9333 68.099 10.656C68.6217 10.3787 69.0643 10.016 69.427 9.568C69.7897 9.12 70.067 8.61333 70.259 8.048C70.4617 7.48267 70.563 6.90667 70.563 6.32C70.563 5.70133 70.4563 5.10933 70.243 4.544C70.0403 3.968 69.7523 3.46133 69.379 3.024C69.0057 2.58667 68.563 2.24 68.051 1.984C67.539 1.71733 66.9737 1.584 66.355 1.584C65.715 1.584 65.1337 1.72267 64.611 2C64.0883 2.26667 63.6457 2.624 63.283 3.072C62.9203 3.52 62.6377 4.02667 62.435 4.592C62.243 5.15733 62.147 5.73333 62.147 6.32ZM75.8746 2.72V12H74.7546V0.639999H75.6186L83.1386 10.096V0.655999H84.2586V12H83.2826L75.8746 2.72ZM88.074 12V0.639999H89.194V12H88.074ZM99.6428 2.768C99.3228 2.40533 98.8961 2.112 98.3628 1.888C97.8294 1.664 97.2214 1.552 96.5388 1.552C95.5361 1.552 94.8054 1.744 94.3468 2.128C93.8881 2.50133 93.6588 3.01333 93.6588 3.664C93.6588 4.00533 93.7174 4.288 93.8348 4.512C93.9628 4.72533 94.1548 4.912 94.4108 5.072C94.6668 5.232 94.9921 5.37067 95.3868 5.488C95.7921 5.60533 96.2668 5.72267 96.8108 5.84C97.4188 5.968 97.9628 6.112 98.4428 6.272C98.9334 6.432 99.3494 6.63467 99.6908 6.88C100.032 7.11467 100.293 7.40267 100.475 7.744C100.656 8.08533 100.747 8.512 100.747 9.024C100.747 9.54667 100.645 10 100.443 10.384C100.24 10.768 99.9574 11.088 99.5948 11.344C99.2321 11.6 98.8001 11.792 98.2988 11.92C97.7974 12.0373 97.2481 12.096 96.6508 12.096C94.8908 12.096 93.3708 11.5467 92.0908 10.448L92.6508 9.536C92.8534 9.74933 93.0934 9.952 93.3708 10.144C93.6588 10.336 93.9734 10.5067 94.3148 10.656C94.6668 10.7947 95.0401 10.9067 95.4348 10.992C95.8294 11.0667 96.2454 11.104 96.6828 11.104C97.5894 11.104 98.2934 10.944 98.7948 10.624C99.3068 10.2933 99.5628 9.79733 99.5628 9.136C99.5628 8.784 99.4881 8.49067 99.3388 8.256C99.2001 8.01067 98.9868 7.80267 98.6988 7.632C98.4108 7.45067 98.0534 7.296 97.6268 7.168C97.2001 7.04 96.7041 6.912 96.1388 6.784C95.5414 6.64533 95.0188 6.50133 94.5708 6.352C94.1228 6.20267 93.7441 6.016 93.4348 5.792C93.1254 5.568 92.8908 5.30133 92.7308 4.992C92.5814 4.672 92.5068 4.28267 92.5068 3.824C92.5068 3.30133 92.6028 2.83733 92.7948 2.432C92.9974 2.016 93.2801 1.67467 93.6428 1.408C94.0054 1.13067 94.4321 0.922666 94.9228 0.783999C95.4134 0.634666 95.9574 0.559999 96.5548 0.559999C97.3121 0.559999 97.9841 0.677333 98.5708 0.912C99.1681 1.136 99.7068 1.456 100.187 1.872L99.6428 2.768ZM111.667 1.632H107.619V12H106.499V1.632H102.451V0.639999H111.667V1.632ZM116.724 0.639999H117.668L122.388 12H121.204L119.732 8.448H114.628L113.172 12H111.972L116.724 0.639999ZM119.476 7.568L117.188 1.952L114.868 7.568H119.476Z" fill="white"/>
</svg>
